<mxfile host="app.diagrams.net" agent="Mozilla/5.0 (Windows NT 10.0; Win64; x64; rv:131.0) Gecko/20100101 Firefox/131.0" version="24.7.17">
  <diagram id="C5RBs43oDa-KdzZeNtuy" name="Page-1">
    <mxGraphModel grid="1" page="1" gridSize="10" guides="1" tooltips="1" connect="1" arrows="1" fold="1" pageScale="1" pageWidth="827" pageHeight="1169" math="0" shadow="0">
      <root>
        <mxCell id="WIyWlLk6GJQsqaUBKTNV-0" />
        <mxCell id="WIyWlLk6GJQsqaUBKTNV-1" parent="WIyWlLk6GJQsqaUBKTNV-0" />
        <mxCell id="Y-R_RtDxPs0OMCq_SQZc-1" value="&lt;div&gt;&amp;lt;&amp;lt;Component&amp;gt;&amp;gt;&lt;/div&gt;&lt;div&gt;&amp;lt;&amp;lt;C4 System&amp;gt;&amp;gt;&lt;/div&gt;&lt;div&gt;Sistema Hospital&lt;br&gt;&lt;/div&gt;" style="rounded=0;whiteSpace=wrap;html=1;strokeColor=#000000;fontColor=#1A1A1A;fillColor=#5D7F99;" vertex="1" parent="WIyWlLk6GJQsqaUBKTNV-1">
          <mxGeometry x="210" y="200" width="220" height="100" as="geometry" />
        </mxCell>
        <mxCell id="Y-R_RtDxPs0OMCq_SQZc-2" value="" style="ellipse;whiteSpace=wrap;html=1;aspect=fixed;strokeColor=#000000;fontColor=#1A1A1A;fillColor=#5D7F99;" vertex="1" parent="WIyWlLk6GJQsqaUBKTNV-1">
          <mxGeometry x="160" y="80" width="40" height="40" as="geometry" />
        </mxCell>
        <mxCell id="Y-R_RtDxPs0OMCq_SQZc-3" value="" style="ellipse;whiteSpace=wrap;html=1;aspect=fixed;strokeColor=#000000;fontColor=#1A1A1A;fillColor=#5D7F99;" vertex="1" parent="WIyWlLk6GJQsqaUBKTNV-1">
          <mxGeometry x="300" y="80" width="40" height="40" as="geometry" />
        </mxCell>
        <mxCell id="Y-R_RtDxPs0OMCq_SQZc-4" value="" style="ellipse;whiteSpace=wrap;html=1;aspect=fixed;strokeColor=#000000;fontColor=#1A1A1A;fillColor=#5D7F99;" vertex="1" parent="WIyWlLk6GJQsqaUBKTNV-1">
          <mxGeometry x="440" y="80" width="40" height="40" as="geometry" />
        </mxCell>
        <mxCell id="Y-R_RtDxPs0OMCq_SQZc-5" value="" style="rounded=0;whiteSpace=wrap;html=1;strokeColor=#D0CEE2;fontColor=#1A1A1A;fillColor=#5D7F99;" vertex="1" parent="WIyWlLk6GJQsqaUBKTNV-1">
          <mxGeometry x="307.5" y="190" width="25" height="20" as="geometry" />
        </mxCell>
        <mxCell id="Y-R_RtDxPs0OMCq_SQZc-27" value="&lt;font style=&quot;font-size: 16px;&quot;&gt;Staff UI&lt;/font&gt;" style="text;html=1;whiteSpace=wrap;overflow=hidden;rounded=0;fontColor=#1A1A1A;" vertex="1" parent="WIyWlLk6GJQsqaUBKTNV-1">
          <mxGeometry x="150" y="50" width="160" height="40" as="geometry" />
        </mxCell>
        <mxCell id="Y-R_RtDxPs0OMCq_SQZc-28" value="&lt;div style=&quot;font-size: 15px;&quot;&gt;&lt;font style=&quot;font-size: 15px;&quot;&gt;Admin UI&lt;/font&gt;&lt;/div&gt;" style="text;html=1;whiteSpace=wrap;overflow=hidden;rounded=0;fontColor=#1A1A1A;" vertex="1" parent="WIyWlLk6GJQsqaUBKTNV-1">
          <mxGeometry x="290" y="50" width="160" height="40" as="geometry" />
        </mxCell>
        <mxCell id="Y-R_RtDxPs0OMCq_SQZc-29" value="&lt;div&gt;&lt;font style=&quot;font-size: 16px;&quot;&gt;Patient UI&lt;/font&gt;&lt;/div&gt;" style="text;html=1;whiteSpace=wrap;overflow=hidden;rounded=0;fontColor=#1A1A1A;" vertex="1" parent="WIyWlLk6GJQsqaUBKTNV-1">
          <mxGeometry x="430" y="50" width="160" height="40" as="geometry" />
        </mxCell>
        <mxCell id="Y-R_RtDxPs0OMCq_SQZc-31" value="" style="rounded=0;whiteSpace=wrap;html=1;strokeColor=#D0CEE2;fontColor=#1A1A1A;fillColor=#5D7F99;" vertex="1" parent="WIyWlLk6GJQsqaUBKTNV-1">
          <mxGeometry x="307.5" y="290" width="22.5" height="20" as="geometry" />
        </mxCell>
        <mxCell id="Y-R_RtDxPs0OMCq_SQZc-32" value="" style="ellipse;whiteSpace=wrap;html=1;aspect=fixed;strokeColor=#D0CEE2;fontColor=#1A1A1A;fillColor=#5D7F99;" vertex="1" parent="WIyWlLk6GJQsqaUBKTNV-1">
          <mxGeometry x="298.75" y="370" width="40" height="40" as="geometry" />
        </mxCell>
        <mxCell id="Y-R_RtDxPs0OMCq_SQZc-54" value="" style="verticalLabelPosition=bottom;verticalAlign=top;html=1;shape=mxgraph.basic.arc;startAngle=0.6526613072179471;endAngle=0.3510676439328775;fillColor=#f5f5f5;fontColor=#333333;strokeColor=#666666;" vertex="1" parent="WIyWlLk6GJQsqaUBKTNV-1">
          <mxGeometry x="293.75" y="365" width="50" height="50" as="geometry" />
        </mxCell>
        <mxCell id="Y-R_RtDxPs0OMCq_SQZc-57" value="" style="endArrow=none;html=1;rounded=0;strokeColor=#736CA8;fontColor=#1A1A1A;exitX=0.531;exitY=0.022;exitDx=0;exitDy=0;exitPerimeter=0;" edge="1" parent="WIyWlLk6GJQsqaUBKTNV-1" source="Y-R_RtDxPs0OMCq_SQZc-54">
          <mxGeometry width="50" height="50" relative="1" as="geometry">
            <mxPoint x="320" y="360" as="sourcePoint" />
            <mxPoint x="320" y="310" as="targetPoint" />
          </mxGeometry>
        </mxCell>
        <mxCell id="Y-R_RtDxPs0OMCq_SQZc-58" value="" style="endArrow=none;html=1;rounded=0;strokeColor=#000000;fontColor=#1A1A1A;exitX=0.5;exitY=0;exitDx=0;exitDy=0;" edge="1" parent="WIyWlLk6GJQsqaUBKTNV-1" source="Y-R_RtDxPs0OMCq_SQZc-5">
          <mxGeometry width="50" height="50" relative="1" as="geometry">
            <mxPoint x="130" y="170" as="sourcePoint" />
            <mxPoint x="180" y="120" as="targetPoint" />
          </mxGeometry>
        </mxCell>
        <mxCell id="Y-R_RtDxPs0OMCq_SQZc-59" value="" style="endArrow=none;html=1;rounded=0;strokeColor=#000000;fontColor=#1A1A1A;exitX=0.5;exitY=0;exitDx=0;exitDy=0;" edge="1" parent="WIyWlLk6GJQsqaUBKTNV-1" source="Y-R_RtDxPs0OMCq_SQZc-5">
          <mxGeometry width="50" height="50" relative="1" as="geometry">
            <mxPoint x="270" y="170" as="sourcePoint" />
            <mxPoint x="320" y="120" as="targetPoint" />
          </mxGeometry>
        </mxCell>
        <mxCell id="Y-R_RtDxPs0OMCq_SQZc-60" value="" style="endArrow=none;html=1;rounded=0;strokeColor=#000000;fontColor=#1A1A1A;exitX=0.5;exitY=0;exitDx=0;exitDy=0;" edge="1" parent="WIyWlLk6GJQsqaUBKTNV-1" source="Y-R_RtDxPs0OMCq_SQZc-5">
          <mxGeometry width="50" height="50" relative="1" as="geometry">
            <mxPoint x="410" y="170" as="sourcePoint" />
            <mxPoint x="460" y="120" as="targetPoint" />
          </mxGeometry>
        </mxCell>
        <mxCell id="cVxRN6MvEGq8-cNjZAMB-2" value="Google Cloud Services API" style="text;html=1;align=center;verticalAlign=middle;whiteSpace=wrap;rounded=0;" vertex="1" parent="WIyWlLk6GJQsqaUBKTNV-1">
          <mxGeometry x="278.13" y="415" width="81.25" height="30" as="geometry" />
        </mxCell>
      </root>
    </mxGraphModel>
  </diagram>
</mxfile>
